<svg xmlns="http://www.w3.org/2000/svg" width="100" height="29.998" viewBox="0 0 43.724 14.998">
  <g id="Group_3796" data-name="Group 3796" transform="translate(-39 -25.002)">
    <g id="Group_5" data-name="Group 5" transform="translate(39 25)">
      <path id="Path_1" data-name="Path 1" d="M226.835-1016.87l-1.16,1.609h-10.74v-13.1l1.609-1.16v12.647Z" transform="translate(-214.935 1030.196)" fill="#00a694"/>
      <path id="Path_2" data-name="Path 2" d="M220.772-1025.85a4.123,4.123,0,0,1,3.894-4.339A4.122,4.122,0,0,1,229-1026.3a4.13,4.13,0,0,1,0,.445,4.121,4.121,0,0,1-3.893,4.338,4.122,4.122,0,0,1-4.339-3.894,4.116,4.116,0,0,1,0-.444m6.66,0a2.553,2.553,0,0,0-2.336-2.753,2.553,2.553,0,0,0-2.753,2.336,2.638,2.638,0,0,0,0,.417,2.554,2.554,0,0,0,2.337,2.752,2.552,2.552,0,0,0,2.752-2.336,2.408,2.408,0,0,0,0-.416" transform="translate(-214.935 1030.196)" fill="#00a694"/>
      <path id="Path_3" data-name="Path 3" d="M242.96-1022.11h9.99a9.882,9.882,0,0,0-.036-1.5,6.824,6.824,0,0,0-1.646-4.3,5.521,5.521,0,0,0-4.153-1.609c-3.7,0-6.473,3.031-6.473,7.109a6.691,6.691,0,0,0,1.811,4.93,6.691,6.691,0,0,0,4.812,2.1,5.467,5.467,0,0,0,5.538-4.3h-1.572a4.047,4.047,0,0,1-3.931,2.657,5.024,5.024,0,0,1-4.939-4.789,6.214,6.214,0,0,1,.486-3.18,5.179,5.179,0,0,1,1.5-1.983,4.219,4.219,0,0,1,2.208-.861c.15,0,.3-.037.486-.037a3.957,3.957,0,0,1,4.185,3.717c0,.058.006.116.006.174l.037.262H244.16Z" transform="translate(-214.935 1030.196)" fill="#00a694"/>
      <path id="Path_4" data-name="Path 4" d="M239.443-1027.76c-2.919,0-4.9,3.592-5.238,4.715v7.745h-1.6v-13.059l1.609-1.16v3.667a6.267,6.267,0,0,1,2.544-2.769,6.749,6.749,0,0,1,2.694-.9v1.759" transform="translate(-214.935 1030.196)" fill="#00a694"/>
    </g>
    <g id="Group_3066" data-name="Group 3066" transform="translate(78.35 35.627)">
      <g id="Group_3065" data-name="Group 3065" transform="translate(1.47 1.28)">
        <path id="Path_7122" data-name="Path 7122" d="M256.193-1016.8h-.281v.628h-.353v-1.714h.637a.727.727,0,0,1,.469.129.47.47,0,0,1,.164.388.527.527,0,0,1-.076.293.51.51,0,0,1-.23.185l.372.7v.016h-.374Zm-.281-.286h.285a.3.3,0,0,0,.206-.067.24.24,0,0,0,.074-.186.259.259,0,0,0-.069-.19.283.283,0,0,0-.211-.07h-.284Z" transform="translate(-255.558 1017.89)" fill="#00a694" stroke="#00a694" stroke-width="0.2"/>
      </g>
      <g id="Ellipse_219" data-name="Ellipse 219">
        <ellipse id="Ellipse_221" data-name="Ellipse 221" cx="2.137" cy="2.137" rx="2.137" ry="2.137" transform="translate(0.001 0)" fill="none" stroke="#00a694" stroke-width="0.2"/>
        <path id="Path_7123" data-name="Path 7123" d="M256.422-1014.727a2.139,2.139,0,0,1-2.138-2.137,2.139,2.139,0,0,1,2.138-2.136,2.139,2.139,0,0,1,2.137,2.136A2.139,2.139,0,0,1,256.422-1014.727Zm0-4.014a1.883,1.883,0,0,0-1.88,1.88,1.883,1.883,0,0,0,1.88,1.88,1.881,1.881,0,0,0,1.879-1.88,1.882,1.882,0,0,0-1.879-1.88Z" transform="translate(-254.284 1019)" fill="#00a694" stroke="#00a694" stroke-width="0.2"/>
      </g>
    </g>
  </g>
</svg>
