<svg xmlns="http://www.w3.org/2000/svg" viewBox="0 0 207.3 74.5"><title>Asset 20</title><path d="M193.9,1.5h-3.7v9.2h-1.7V1.5h-3.7V0h9.1Z" fill="#00a694"/><path d="M207.3,10.7h-1.6V1.6h0l-3.3,9.1h-1.4l-3.3-9.1h0v9.1h-1.6V0h2.6L201,6.2l.8,2.6h0l.8-2.6L204.7,0h2.6Z" fill="#00a694"/><polygon points="55.3 67 50 74.5 0 74.5 0 13.5 7.5 8.3 7.5 67 55.3 67" fill="#00a694"/><path d="M27.2,25.3c0-12.3,8.5-20.2,19-20.2S65.3,13,65.3,25.3,56.8,45.4,46.2,45.4s-19-7.9-19-20.1m31,0c0-8.4-5.9-13-12-13s-11.9,4.6-11.9,13,5.9,12.9,11.9,12.9,12-4.5,12-12.9" fill="#00a694"/><path d="M130.3,42.7h46.5c.1-2.5,0-4.8-.1-7-.7-8.6-3.2-15.4-7.7-20.1s-11.1-7.4-19.3-7.4c-17.1,0-30.1,14.2-30.1,33s13.2,32.7,30.8,32.7c12.8,0,23.1-8,25.7-20h-7.4c-2.6,7.5-9.8,12.4-18.3,12.4-12.2,0-21.6-9.2-22.9-22.4a30.1,30.1,0,0,1,2.2-14.8,24,24,0,0,1,7-9.1,18.7,18.7,0,0,1,10.2-4l2.2-.2c11.2,0,18.6,7,19.5,18.1v1.2H135.6Z" fill="#00a694"/><path d="M113.9,16.4c-13.6.1-22.8,16.7-24.3,21.9v36H82.1V13.6l7.5-5.3v17c2.1-5.4,7.1-9.8,11.9-12.9a30,30,0,0,1,12.4-4.2v8.2" fill="#00a694"/></svg>