<svg xmlns="http://www.w3.org/2000/svg" viewBox="0 0 171.82 60.23"><defs><style>.cls-1{fill:#00a694;}</style></defs><title>Asset 79</title><g id="Layer_2" data-name="Layer 2"><g id="Layer_1-2" data-name="Layer 1"><g id="Group_3634" data-name="Group 3634"><g id="Group_3634-2" data-name="Group 3634-2"><path id="Path_7460" data-name="Path 7460" class="cls-1" d="M43.43,54.37l-4.16,5.86H0V12.36L5.86,8.2V54.37Z"/><path id="Path_7461" data-name="Path 7461" class="cls-1" d="M21.35,21.58c0-9.64,6.7-15.85,15-15.85s15,6.21,15,15.85-6.7,15.85-15,15.85-15-6.21-15-15.85m24.32,0A9.44,9.44,0,0,0,37,11.43l-.67,0a9.45,9.45,0,0,0-9.39,9.5l0,.68a9.42,9.42,0,0,0,8.63,10.14c.24,0,.49,0,.73,0A9.41,9.41,0,0,0,45.7,22.3q0-.36,0-.72"/><path id="Path_7462" data-name="Path 7462" class="cls-1" d="M102.34,35.23h36.49a47.54,47.54,0,0,0-.07-5.47,25,25,0,0,0-6-15.74,19.92,19.92,0,0,0-15.18-5.84c-13.47,0-23.64,11.14-23.64,25.91s10.4,25.7,24.16,25.7a20,20,0,0,0,20.23-15.7h-5.8a14.84,14.84,0,0,1-14.41,9.69c-9.59,0-17-7.22-18-17.55a23.54,23.54,0,0,1,1.77-11.61,18.11,18.11,0,0,1,5.44-7.19,15.7,15.7,0,0,1,8-3.17,16.9,16.9,0,0,1,1.74-.09,14.44,14.44,0,0,1,15.32,13.51l0,.66.07,1-26,0Z"/><path id="Path_7463" data-name="Path 7463" class="cls-1" d="M89.47,14.64c-10.69,0-17.94,13.08-19.07,17.18V60.1H64.5V12.4l5.9-4.18V21.58a23,23,0,0,1,9.29-10.12,23.5,23.5,0,0,1,9.79-3.28c0,1.56,0,5.57,0,6.46"/></g><g id="Group_3637" data-name="Group 3637"><g id="Group_3635" data-name="Group 3635"><path id="Path_8830" data-name="Path 8830" class="cls-1" d="M158,15.44h-2v4.09h-2.45V8.1h4.08a7.55,7.55,0,0,1,3.26.81,2.9,2.9,0,0,1,1.23,2.45,3,3,0,0,1-.41,2,5.57,5.57,0,0,1-1.63,1.22l2.45,4.49h-2.45Zm-1.64-2h2c.41,0,1.23,0,1.23-.41a1.63,1.63,0,0,0-1.23-2.85h-2Z"/><path id="Path_7464" data-name="Path 7464" class="cls-1" d="M156.16,19.72h-2.84V7.9h4.28a7.79,7.79,0,0,1,3.35.84,3.07,3.07,0,0,1,1.33,2.62,3.2,3.2,0,0,1-.44,2.14,5.93,5.93,0,0,1-1.53,1.2l2.51,4.61h-2.9l-2-3.68h-1.73Zm-2.45-.4h2.06V15.24h2.35l2,3.67h2l-2.38-4.37.18-.09a5.68,5.68,0,0,0,1.57-1.18,2.87,2.87,0,0,0,.36-1.88,2.74,2.74,0,0,0-1.14-2.31,7.37,7.37,0,0,0-3.16-.78h-3.87Zm4.7-5.72h-2.23V9.94h2.23a1.83,1.83,0,0,1,1.42,3.15c-.1.51-1,.51-1.41.51Zm-1.84-.39h1.84c.89,0,1-.14,1-.22V12.9l.07-.06a1.44,1.44,0,0,0,.14-2,1.41,1.41,0,0,0-1.22-.48h-1.86Z"/></g><g id="Group_3636" data-name="Group 3636"><path id="Path_7465" data-name="Path 7465" class="cls-1" d="M158,27.42a13.61,13.61,0,1,1,13.61-13.6A13.63,13.63,0,0,1,158,27.42Zm0-25.25a11.64,11.64,0,1,0,11.63,11.64A11.65,11.65,0,0,0,158,2.17Z"/><path id="Path_7466" data-name="Path 7466" class="cls-1" d="M158,27.61a13.81,13.81,0,1,1,13.81-13.8A13.81,13.81,0,0,1,158,27.61ZM158,.39a13.42,13.42,0,1,0,13.41,13.42A13.43,13.43,0,0,0,158,.39Zm0,25.25a11.84,11.84,0,1,1,11.83-11.83A11.85,11.85,0,0,1,158,25.64Zm0-23.28a11.45,11.45,0,1,0,11.44,11.45A11.47,11.47,0,0,0,158,2.36Z"/></g></g></g></g></g></svg>