<svg xmlns="http://www.w3.org/2000/svg" viewBox="0 0 110 110"><title>Asset 13</title><path d="M22.4,99.2l8.7-8.9c2.2-2.2,4.4-4.4,6.7-6.5a3.7,3.7,0,0,1,2-.9c6.5,0,12.9-.1,19.4,0,13.8.4,22.6-9.5,25.3-19.6,2-7.8,1.6-15.2-2-22.4-.5-1-.3-1.6.5-2.5,5.4-5.3,10.7-10.6,16-16,13.1,16.2,16.9,46.3-2.5,68.6A54.7,54.7,0,0,1,22.4,99.2Z"/><path d="M10.4,87.1A54.9,54.9,0,0,1,18,14.3C39.7-5.4,69.8-2.8,86.9,10.4L74,23c-1.4,1.3-2.7,2.7-4.2,3.9a1.7,1.7,0,0,1-1.4.4c-3-.4-5.9-1.2-8.9-1.2C49.7,25.9,39.9,26,30,26H28.9v1.8c0,12.7-.1,25.4,0,38.1a4.2,4.2,0,0,1-1.3,3.3c-5.5,5.6-11,11.4-16.4,17.1Z"/><path d="M44.9,42h5.2c2.6,0,5.1.1,7.6,0,7-.5,11.1,4.9,11.9,9.9s-.4,9.1-4,12.5a8.6,8.6,0,0,1-6,2.5H44.9Z"/></svg>